<svg width="208" height="42" viewBox="0 0 208 42" fill="none" xmlns="http://www.w3.org/2000/svg">
<path d="M68.02 35.4894C65.3267 35.4894 63 34.8628 61.04 33.6094C59.08 32.3561 57.5667 30.5961 56.5 28.3294C55.4467 26.0628 54.92 23.4161 54.92 20.3894C54.92 17.3494 55.4467 14.7428 56.5 12.5694C57.5533 10.3828 59.06 8.70278 61.02 7.52945C62.98 6.35611 65.3133 5.76945 68.02 5.76945C70.1933 5.76945 72.1267 6.20945 73.82 7.08945C75.5267 7.95611 76.9 9.14278 77.94 10.6494C78.9933 12.1561 79.6133 13.8561 79.8 15.7494H73.68C73.4933 14.7494 73.1533 13.8628 72.66 13.0894C72.1667 12.3028 71.52 11.6894 70.72 11.2494C69.92 10.7961 68.96 10.5694 67.84 10.5694C66.4933 10.5694 65.3333 10.8961 64.36 11.5494C63.3867 12.2028 62.64 13.2561 62.12 14.7094C61.6 16.1628 61.34 18.0828 61.34 20.4694C61.34 24.0694 61.9133 26.6761 63.06 28.2894C64.22 29.8894 65.8133 30.6894 67.84 30.6894C68.96 30.6894 69.92 30.4361 70.72 29.9294C71.52 29.4094 72.1667 28.7294 72.66 27.8894C73.1533 27.0361 73.4933 26.1028 73.68 25.0894H79.8C79.6267 26.4628 79.2933 27.7761 78.8 29.0294C78.3067 30.2694 77.6067 31.3761 76.7 32.3494C75.7933 33.3228 74.6267 34.0894 73.2 34.6494C71.7733 35.2094 70.0467 35.4894 68.02 35.4894ZM84.2109 35.0894V5.36945H90.0109V17.3894C90.3443 16.9094 90.7643 16.4361 91.2709 15.9694C91.7776 15.4894 92.4109 15.0894 93.1709 14.7694C93.9309 14.4494 94.8576 14.2894 95.9509 14.2894C97.2709 14.2894 98.4709 14.5494 99.5509 15.0694C100.644 15.5761 101.518 16.3161 102.171 17.2894C102.838 18.2628 103.171 19.4494 103.171 20.8494V35.0894H97.3109V21.7094C97.3109 20.7761 96.9709 20.0628 96.2909 19.5694C95.6243 19.0628 94.8109 18.8094 93.8509 18.8094C93.2243 18.8094 92.6176 18.9228 92.0309 19.1494C91.4443 19.3761 90.9643 19.7228 90.5909 20.1894C90.2309 20.6428 90.0509 21.2094 90.0509 21.8894V35.0894H84.2109ZM113.906 35.4894C112.599 35.4894 111.412 35.2428 110.346 34.7494C109.292 34.2561 108.459 33.5428 107.846 32.6094C107.232 31.6628 106.926 30.5161 106.926 29.1694C106.926 26.9028 107.772 25.1828 109.466 24.0094C111.159 22.8228 113.832 22.2094 117.486 22.1694L120.086 22.1294V20.8894C120.086 19.9428 119.806 19.2161 119.246 18.7094C118.699 18.1894 117.839 17.9361 116.666 17.9494C115.826 17.9628 115.019 18.1628 114.246 18.5494C113.486 18.9361 112.959 19.6094 112.666 20.5694H107.806C107.886 19.0761 108.319 17.8494 109.106 16.8894C109.906 15.9161 110.979 15.1961 112.326 14.7294C113.672 14.2494 115.212 14.0094 116.946 14.0094C119.052 14.0094 120.746 14.2761 122.026 14.8094C123.306 15.3294 124.232 16.0828 124.806 17.0694C125.392 18.0428 125.686 19.2028 125.686 20.5494V35.0894H120.806L120.326 31.5294C119.619 33.0228 118.732 34.0561 117.666 34.6294C116.612 35.2028 115.359 35.4894 113.906 35.4894ZM115.886 31.6494C116.406 31.6494 116.912 31.5561 117.406 31.3694C117.912 31.1694 118.366 30.9094 118.766 30.5894C119.166 30.2561 119.479 29.8828 119.706 29.4694C119.946 29.0561 120.072 28.6294 120.086 28.1894V25.1294L117.986 25.1694C117.012 25.1828 116.106 25.3028 115.266 25.5294C114.426 25.7428 113.746 26.0961 113.226 26.5894C112.719 27.0828 112.466 27.7494 112.466 28.5894C112.466 29.5494 112.792 30.3028 113.446 30.8494C114.112 31.3828 114.926 31.6494 115.886 31.6494ZM130.422 41.5294V14.4094H136.282L136.302 17.3894C136.609 16.8961 136.982 16.4494 137.422 16.0494C137.875 15.6361 138.375 15.2761 138.922 14.9694C139.469 14.6628 140.062 14.4294 140.702 14.2694C141.342 14.0961 142.015 14.0094 142.722 14.0094C144.255 14.0094 145.622 14.3894 146.822 15.1494C148.022 15.8961 148.962 17.0561 149.642 18.6294C150.335 20.1894 150.682 22.1761 150.682 24.5894C150.682 27.0961 150.309 29.1561 149.562 30.7694C148.829 32.3694 147.815 33.5561 146.522 34.3294C145.229 35.1028 143.769 35.4894 142.142 35.4894C141.475 35.4894 140.849 35.3961 140.262 35.2094C139.675 35.0361 139.129 34.7894 138.622 34.4694C138.129 34.1494 137.682 33.7828 137.282 33.3694C136.895 32.9428 136.555 32.4828 136.262 31.9894V41.5294H130.422ZM140.742 31.2094C142.009 31.2094 143.069 30.6828 143.922 29.6294C144.789 28.5761 145.222 26.9094 145.222 24.6294C145.222 22.6294 144.809 21.0694 143.982 19.9494C143.169 18.8161 142.089 18.2494 140.742 18.2494C139.235 18.2494 138.109 18.8628 137.362 20.0894C136.629 21.3028 136.262 22.8161 136.262 24.6294C136.262 25.7894 136.422 26.8694 136.742 27.8694C137.075 28.8694 137.569 29.6761 138.222 30.2894C138.889 30.9028 139.729 31.2094 140.742 31.2094ZM162.975 35.3094C161.148 35.3094 159.735 35.0761 158.735 34.6094C157.748 34.1428 157.061 33.4894 156.675 32.6494C156.301 31.8094 156.115 30.8361 156.115 29.7294V18.4694H152.755V14.4094H156.295L157.775 8.16945H161.935V14.3894H166.535V18.4694H161.935L161.975 29.4894C161.975 29.9961 162.035 30.3761 162.155 30.6294C162.288 30.8694 162.488 31.0294 162.755 31.1094C163.035 31.1761 163.388 31.2094 163.815 31.2094H166.595V34.8094C166.315 34.9294 165.895 35.0428 165.335 35.1494C164.775 35.2561 163.988 35.3094 162.975 35.3094ZM170.695 35.0894V14.4094H176.315V19.3094C176.649 18.2561 177.115 17.3361 177.715 16.5494C178.329 15.7494 179.069 15.1294 179.935 14.6894C180.802 14.2361 181.782 14.0094 182.875 14.0094C183.062 14.0094 183.235 14.0228 183.395 14.0494C183.569 14.0628 183.695 14.0894 183.775 14.1294V19.6894C183.655 19.6361 183.509 19.6028 183.335 19.5894C183.175 19.5761 183.029 19.5628 182.895 19.5494C181.749 19.4561 180.769 19.4894 179.955 19.6494C179.142 19.8094 178.482 20.0828 177.975 20.4694C177.469 20.8561 177.102 21.3294 176.875 21.8894C176.649 22.4494 176.535 23.0761 176.535 23.7694V35.0894H170.695ZM196.641 35.4894C194.587 35.4894 192.781 35.0628 191.221 34.2094C189.674 33.3428 188.467 32.1228 187.601 30.5494C186.734 28.9761 186.301 27.1228 186.301 24.9894C186.301 22.9228 186.694 21.0628 187.481 19.4094C188.281 17.7428 189.427 16.4294 190.921 15.4694C192.414 14.4961 194.221 14.0094 196.341 14.0094C198.447 14.0094 200.214 14.4561 201.641 15.3494C203.067 16.2294 204.147 17.4628 204.881 19.0494C205.614 20.6228 205.981 22.4428 205.981 24.5094V26.0894H192.081C192.081 27.1428 192.254 28.0628 192.601 28.8494C192.947 29.6228 193.447 30.2228 194.101 30.6494C194.767 31.0628 195.567 31.2694 196.501 31.2694C197.501 31.2694 198.374 31.0561 199.121 30.6294C199.867 30.2028 200.394 29.5028 200.701 28.5294H205.961C205.721 29.9961 205.134 31.2494 204.201 32.2894C203.267 33.3294 202.134 34.1228 200.801 34.6694C199.467 35.2161 198.081 35.4894 196.641 35.4894ZM192.081 22.6094H200.521C200.521 21.7828 200.361 21.0228 200.041 20.3294C199.734 19.6361 199.267 19.0894 198.641 18.6894C198.027 18.2894 197.254 18.0894 196.321 18.0894C195.427 18.0894 194.661 18.3094 194.021 18.7494C193.394 19.1761 192.907 19.7361 192.561 20.4294C192.227 21.1228 192.067 21.8494 192.081 22.6094Z" fill="#E33535"/>
<rect width="19.073" height="23.6675" rx="2" transform="matrix(0.792106 -0.610384 0.571679 0.820477 0 21.5814)" fill="#EFABAB"/>
<rect width="18.7998" height="23.9917" rx="2" transform="matrix(0.960229 -0.279213 0.25428 0.967131 6.5033 8.34957)" fill="#EE6868"/>
<rect x="17.4185" width="18.5816" height="24.0077" rx="2" fill="#E33535"/>
</svg>
